<svg xmlns="http://www.w3.org/2000/svg" width="1327.837" height="1306.526" viewBox="0 0 1327.837 1306.526">
  <g id="Layer_1" data-name="Layer 1" opacity="0.618">
    <path id="Path_2" data-name="Path 2" d="M1358.325,917.593c75.613,50.41,102.978,98.416,102.978,192.965q0,192.968-174.408,337.692C970.414,1710.83,403.7,1616.783,403.7,1184.775c0-198.58,101.3-315.582,269-424.894-64.895-285.7,139.56-472.211,344.223-472.211,275.186,0,237.735,285.736,81.857,285.736-34.073,0-47.085-17.235-24.336-57.516,66.514-120.718-137.539-189.344-272.674-38.036-85.186,95.351-79.23,186.748-74.541,253.268q59.429-28.747,130-28.761c213.179,0,201.175,245.843,15.858,245.843q-116.019,0-181.905-131.733c-295.286,226.086-99.566,696.719,263.585,696.719q162.894,0,285.549-109.746c201.394-180.223,127.541-421.838-32.281-421.838-120.057,0-179.146,135.391-122.921,203.068,25.508,30.749,70.978,38.356,95.092-4.538q10.418-16.7,21.8-16.7c36.568,0,24.1,57.264-7.42,83.238-141.6,116.5-419.781-231.7,19.341-418.148,166.052-70.865,440.345-168.908,440.345-358.786,0-73.141-54.076-131.979-123.519-131.979-50.707,0-94.5,46.711-94.5,96.834,0,61.593,93.7,31.073,93.7,79.151,0,106.234-180.907,119.779-180.907-40.54,0-98.713,86.153-183.688,185.545-183.688,196.8,0,273.285,253.609,102.047,441.6q-56.584,63.1-216.157,151.216Q1400.07,894.4,1358.325,917.593ZM742.938,786.781C784.706,892.65,861.887,895.992,895.906,861,941,814.716,916.507,706.229,742.938,786.781Z" transform="translate(-403.7 -287.67)" fill="#ffae02"/>
  </g>
</svg>
